<svg xmlns="http://www.w3.org/2000/svg" xmlns:xlink="http://www.w3.org/1999/xlink" width="500" zoomAndPan="magnify" viewBox="0 0 375 112.499997" height="150" preserveAspectRatio="xMidYMid meet" version="1.0"><defs><g/><clipPath id="ec00cbdd95"><path d="M 29 22.609375 L 80 22.609375 L 80 89 L 29 89 Z M 29 22.609375 " clip-rule="nonzero"/></clipPath></defs><g clip-path="url(#ec00cbdd95)"><path fill="#2d6f31" d="M 67.722656 76.992188 C 67.449219 74.515625 66.914062 72.050781 65.945312 69.746094 C 63.992188 65.105469 60.539062 61.5 56.875 58.121094 C 50.589844 52.324219 44.25 46.582031 37.9375 40.8125 C 42.496094 44.980469 48.511719 47.632812 53.523438 51.234375 C 59.09375 55.230469 64.664062 59.96875 68.1875 65.90625 C 69.300781 67.785156 70.21875 69.773438 70.882812 71.847656 C 72.371094 76.484375 72.578125 82.011719 71.296875 86.855469 C 74.742188 84.769531 77.386719 81.335938 78.742188 77.308594 C 81.480469 69.175781 78.765625 60.175781 73.269531 53.796875 C 66.152344 45.527344 54.921875 40.652344 45.117188 36.339844 C 44.558594 36.089844 43.992188 35.847656 43.429688 35.601562 C 40.382812 34.273438 37.289062 32.941406 34.691406 30.878906 C 32.097656 28.816406 30.011719 25.898438 29.726562 22.613281 C 29.664062 24.640625 29.125 26.300781 29.0625 28.328125 C 28.574219 44.9375 31.757812 61.222656 41.671875 74.976562 C 44.828125 79.351562 48.605469 83.40625 53.332031 86.054688 C 55.832031 87.453125 58.855469 88.539062 61.90625 88.902344 C 63.238281 89.058594 64.53125 89.023438 65.773438 88.84375 C 67.769531 85.382812 68.148438 80.8125 67.722656 76.992188 " fill-opacity="1" fill-rule="nonzero"/></g><g fill="#fbf9f9" fill-opacity="1"><g transform="translate(83.7412, 73.311874)"><g><path d="M 25.4375 -7.953125 L 25.125 0 L 1.96875 0 L 1.96875 -1.828125 L 6.078125 -2.328125 C 6.140625 -4.203125 6.171875 -6.097656 6.171875 -8.015625 C 6.171875 -9.941406 6.171875 -11.890625 6.171875 -13.859375 L 6.171875 -16.046875 C 6.171875 -17.984375 6.171875 -19.90625 6.171875 -21.8125 C 6.171875 -23.71875 6.140625 -25.640625 6.078125 -27.578125 L 1.96875 -28.078125 L 1.96875 -29.90625 L 24.234375 -29.90625 L 24.546875 -21.953125 L 22 -21.953125 L 21.015625 -27.625 L 10.453125 -27.625 C 10.398438 -25.75 10.375 -23.867188 10.375 -21.984375 C 10.375 -20.109375 10.375 -18.21875 10.375 -16.3125 L 17.03125 -16.3125 L 17.65625 -20.609375 L 19.671875 -20.609375 L 19.671875 -10.015625 L 17.65625 -10.015625 L 17.078125 -14.21875 L 10.375 -14.21875 C 10.375 -12.070312 10.375 -10.019531 10.375 -8.0625 C 10.375 -6.113281 10.398438 -4.171875 10.453125 -2.234375 L 21.90625 -2.234375 L 22.890625 -7.953125 Z M 25.4375 -7.953125 "/></g></g></g><g fill="#fbf9f9" fill-opacity="1"><g transform="translate(110.737464, 73.311874)"><g><path d="M 20.46875 -5.09375 C 19.875 -3.21875 18.867188 -1.785156 17.453125 -0.796875 C 16.035156 0.179688 14.253906 0.671875 12.109375 0.671875 C 10.585938 0.671875 9.207031 0.410156 7.96875 -0.109375 C 6.738281 -0.628906 5.679688 -1.378906 4.796875 -2.359375 C 3.921875 -3.347656 3.25 -4.535156 2.78125 -5.921875 C 2.320312 -7.304688 2.09375 -8.847656 2.09375 -10.546875 C 2.09375 -12.304688 2.375 -13.894531 2.9375 -15.3125 C 3.507812 -16.726562 4.28125 -17.925781 5.25 -18.90625 C 6.21875 -19.894531 7.320312 -20.648438 8.5625 -21.171875 C 9.800781 -21.691406 11.085938 -21.953125 12.421875 -21.953125 C 13.441406 -21.953125 14.40625 -21.800781 15.3125 -21.5 C 16.21875 -21.207031 17.019531 -20.796875 17.71875 -20.265625 C 18.425781 -19.742188 19 -19.132812 19.4375 -18.4375 C 19.882812 -17.738281 20.1875 -16.972656 20.34375 -16.140625 C 20.132812 -15.003906 19.445312 -14.4375 18.28125 -14.4375 C 17.539062 -14.4375 16.988281 -14.632812 16.625 -15.03125 C 16.269531 -15.4375 16.019531 -15.953125 15.875 -16.578125 L 15.0625 -19.53125 C 14.644531 -19.6875 14.226562 -19.785156 13.8125 -19.828125 C 13.394531 -19.867188 13.007812 -19.890625 12.65625 -19.890625 C 10.71875 -19.890625 9.128906 -19.128906 7.890625 -17.609375 C 6.648438 -16.085938 6.03125 -13.882812 6.03125 -11 C 6.03125 -8.132812 6.691406 -5.945312 8.015625 -4.4375 C 9.347656 -2.9375 11.070312 -2.1875 13.1875 -2.1875 C 14.46875 -2.1875 15.644531 -2.484375 16.71875 -3.078125 C 17.789062 -3.679688 18.671875 -4.546875 19.359375 -5.671875 Z M 20.46875 -5.09375 "/></g></g></g><g fill="#fbf9f9" fill-opacity="1"><g transform="translate(132.549023, 73.311874)"><g><path d="M 12.296875 -19.890625 C 10.328125 -19.890625 8.820312 -19.09375 7.78125 -17.5 C 6.738281 -15.90625 6.21875 -13.585938 6.21875 -10.546875 C 6.21875 -7.535156 6.738281 -5.25 7.78125 -3.6875 C 8.820312 -2.125 10.328125 -1.34375 12.296875 -1.34375 C 14.234375 -1.34375 15.722656 -2.125 16.765625 -3.6875 C 17.804688 -5.25 18.328125 -7.535156 18.328125 -10.546875 C 18.328125 -13.585938 17.804688 -15.90625 16.765625 -17.5 C 15.722656 -19.09375 14.234375 -19.890625 12.296875 -19.890625 Z M 12.296875 -21.953125 C 13.578125 -21.953125 14.832031 -21.703125 16.0625 -21.203125 C 17.300781 -20.710938 18.394531 -19.984375 19.34375 -19.015625 C 20.300781 -18.046875 21.078125 -16.851562 21.671875 -15.4375 C 22.273438 -14.03125 22.578125 -12.398438 22.578125 -10.546875 C 22.578125 -8.703125 22.285156 -7.078125 21.703125 -5.671875 C 21.117188 -4.273438 20.34375 -3.109375 19.375 -2.171875 C 18.40625 -1.234375 17.300781 -0.523438 16.0625 -0.046875 C 14.832031 0.429688 13.578125 0.671875 12.296875 0.671875 C 10.984375 0.671875 9.707031 0.429688 8.46875 -0.046875 C 7.226562 -0.523438 6.128906 -1.234375 5.171875 -2.171875 C 4.222656 -3.109375 3.457031 -4.273438 2.875 -5.671875 C 2.300781 -7.078125 2.015625 -8.703125 2.015625 -10.546875 C 2.015625 -12.398438 2.300781 -14.03125 2.875 -15.4375 C 3.457031 -16.851562 4.234375 -18.046875 5.203125 -19.015625 C 6.171875 -19.984375 7.265625 -20.710938 8.484375 -21.203125 C 9.710938 -21.703125 10.984375 -21.953125 12.296875 -21.953125 Z M 12.296875 -21.953125 "/></g></g></g><g fill="#fbf9f9" fill-opacity="1"><g transform="translate(157.087024, 73.311874)"><g><path d="M 39.03125 -1.609375 L 39.03125 0 L 28.65625 0 L 28.65625 -1.609375 L 31.96875 -2.234375 C 31.988281 -3.335938 32.003906 -4.546875 32.015625 -5.859375 C 32.035156 -7.171875 32.046875 -8.347656 32.046875 -9.390625 L 32.046875 -13.40625 C 32.046875 -15.46875 31.75 -16.878906 31.15625 -17.640625 C 30.5625 -18.398438 29.625 -18.78125 28.34375 -18.78125 C 27.382812 -18.78125 26.421875 -18.554688 25.453125 -18.109375 C 24.484375 -17.660156 23.4375 -16.914062 22.3125 -15.875 C 22.332031 -15.539062 22.347656 -15.195312 22.359375 -14.84375 C 22.378906 -14.488281 22.390625 -14.097656 22.390625 -13.671875 L 22.390625 -9.390625 C 22.390625 -8.347656 22.394531 -7.175781 22.40625 -5.875 C 22.425781 -4.582031 22.453125 -3.367188 22.484375 -2.234375 L 25.609375 -1.609375 L 25.609375 0 L 15.25 0 L 15.25 -1.609375 L 18.546875 -2.234375 C 18.578125 -3.335938 18.597656 -4.546875 18.609375 -5.859375 C 18.628906 -7.171875 18.640625 -8.347656 18.640625 -9.390625 L 18.640625 -13.328125 C 18.640625 -15.347656 18.347656 -16.757812 17.765625 -17.5625 C 17.179688 -18.375 16.25 -18.78125 14.96875 -18.78125 C 13.925781 -18.78125 12.953125 -18.546875 12.046875 -18.078125 C 11.140625 -17.617188 10.117188 -16.910156 8.984375 -15.953125 L 8.984375 -9.390625 C 8.984375 -8.398438 8.988281 -7.242188 9 -5.921875 C 9.019531 -4.597656 9.046875 -3.367188 9.078125 -2.234375 L 12.203125 -1.609375 L 12.203125 0 L 1.828125 0 L 1.828125 -1.609375 L 5.140625 -2.234375 C 5.171875 -3.367188 5.191406 -4.59375 5.203125 -5.90625 C 5.222656 -7.21875 5.234375 -8.378906 5.234375 -9.390625 L 5.234375 -11.671875 C 5.234375 -12.890625 5.21875 -13.898438 5.1875 -14.703125 C 5.15625 -15.515625 5.125 -16.363281 5.09375 -17.25 L 1.5625 -17.65625 L 1.5625 -19.21875 L 7.78125 -21.953125 L 8.453125 -21.5 L 8.8125 -17.875 C 9.882812 -19.101562 11.101562 -20.085938 12.46875 -20.828125 C 13.84375 -21.578125 15.242188 -21.953125 16.671875 -21.953125 C 18.097656 -21.953125 19.242188 -21.625 20.109375 -20.96875 C 20.972656 -20.3125 21.585938 -19.238281 21.953125 -17.75 C 23.109375 -19.175781 24.382812 -20.234375 25.78125 -20.921875 C 27.1875 -21.609375 28.617188 -21.953125 30.078125 -21.953125 C 31.898438 -21.953125 33.3125 -21.335938 34.3125 -20.109375 C 35.3125 -18.890625 35.8125 -16.894531 35.8125 -14.125 L 35.8125 -9.390625 C 35.8125 -8.347656 35.816406 -7.175781 35.828125 -5.875 C 35.847656 -4.582031 35.867188 -3.367188 35.890625 -2.234375 Z M 39.03125 -1.609375 "/></g></g></g><g fill="#fbf9f9" fill-opacity="1"><g transform="translate(197.402645, 73.311874)"><g><path d="M 39.03125 -1.609375 L 39.03125 0 L 28.65625 0 L 28.65625 -1.609375 L 31.96875 -2.234375 C 31.988281 -3.335938 32.003906 -4.546875 32.015625 -5.859375 C 32.035156 -7.171875 32.046875 -8.347656 32.046875 -9.390625 L 32.046875 -13.40625 C 32.046875 -15.46875 31.75 -16.878906 31.15625 -17.640625 C 30.5625 -18.398438 29.625 -18.78125 28.34375 -18.78125 C 27.382812 -18.78125 26.421875 -18.554688 25.453125 -18.109375 C 24.484375 -17.660156 23.4375 -16.914062 22.3125 -15.875 C 22.332031 -15.539062 22.347656 -15.195312 22.359375 -14.84375 C 22.378906 -14.488281 22.390625 -14.097656 22.390625 -13.671875 L 22.390625 -9.390625 C 22.390625 -8.347656 22.394531 -7.175781 22.40625 -5.875 C 22.425781 -4.582031 22.453125 -3.367188 22.484375 -2.234375 L 25.609375 -1.609375 L 25.609375 0 L 15.25 0 L 15.25 -1.609375 L 18.546875 -2.234375 C 18.578125 -3.335938 18.597656 -4.546875 18.609375 -5.859375 C 18.628906 -7.171875 18.640625 -8.347656 18.640625 -9.390625 L 18.640625 -13.328125 C 18.640625 -15.347656 18.347656 -16.757812 17.765625 -17.5625 C 17.179688 -18.375 16.25 -18.78125 14.96875 -18.78125 C 13.925781 -18.78125 12.953125 -18.546875 12.046875 -18.078125 C 11.140625 -17.617188 10.117188 -16.910156 8.984375 -15.953125 L 8.984375 -9.390625 C 8.984375 -8.398438 8.988281 -7.242188 9 -5.921875 C 9.019531 -4.597656 9.046875 -3.367188 9.078125 -2.234375 L 12.203125 -1.609375 L 12.203125 0 L 1.828125 0 L 1.828125 -1.609375 L 5.140625 -2.234375 C 5.171875 -3.367188 5.191406 -4.59375 5.203125 -5.90625 C 5.222656 -7.21875 5.234375 -8.378906 5.234375 -9.390625 L 5.234375 -11.671875 C 5.234375 -12.890625 5.21875 -13.898438 5.1875 -14.703125 C 5.15625 -15.515625 5.125 -16.363281 5.09375 -17.25 L 1.5625 -17.65625 L 1.5625 -19.21875 L 7.78125 -21.953125 L 8.453125 -21.5 L 8.8125 -17.875 C 9.882812 -19.101562 11.101562 -20.085938 12.46875 -20.828125 C 13.84375 -21.578125 15.242188 -21.953125 16.671875 -21.953125 C 18.097656 -21.953125 19.242188 -21.625 20.109375 -20.96875 C 20.972656 -20.3125 21.585938 -19.238281 21.953125 -17.75 C 23.109375 -19.175781 24.382812 -20.234375 25.78125 -20.921875 C 27.1875 -21.609375 28.617188 -21.953125 30.078125 -21.953125 C 31.898438 -21.953125 33.3125 -21.335938 34.3125 -20.109375 C 35.3125 -18.890625 35.8125 -16.894531 35.8125 -14.125 L 35.8125 -9.390625 C 35.8125 -8.347656 35.816406 -7.175781 35.828125 -5.875 C 35.847656 -4.582031 35.867188 -3.367188 35.890625 -2.234375 Z M 39.03125 -1.609375 "/></g></g></g><g fill="#fbf9f9" fill-opacity="1"><g transform="translate(237.718266, 73.311874)"><g><path d="M 24.59375 -1.609375 L 24.59375 0 L 18.375 0.453125 L 17.875 -3.53125 C 16.65625 -2.039062 15.375 -0.96875 14.03125 -0.3125 C 12.695312 0.34375 11.34375 0.671875 9.96875 0.671875 C 9.070312 0.671875 8.257812 0.53125 7.53125 0.25 C 6.800781 -0.03125 6.179688 -0.488281 5.671875 -1.125 C 5.171875 -1.769531 4.789062 -2.597656 4.53125 -3.609375 C 4.28125 -4.628906 4.15625 -5.882812 4.15625 -7.375 L 4.296875 -18.640625 L 1.125 -19.3125 L 1.125 -20.875 L 7.6875 -21.5 L 8.140625 -21.0625 L 7.90625 -14.796875 L 7.90625 -7.875 C 7.90625 -5.875 8.195312 -4.476562 8.78125 -3.6875 C 9.363281 -2.894531 10.265625 -2.5 11.484375 -2.5 C 13.578125 -2.5 15.664062 -3.46875 17.75 -5.40625 L 17.875 -18.640625 L 14.703125 -19.3125 L 14.703125 -20.875 L 21.1875 -21.5 L 21.640625 -21.0625 L 21.5 -14.796875 L 21.5 -2.28125 Z M 24.59375 -1.609375 "/></g></g></g><g fill="#fbf9f9" fill-opacity="1"><g transform="translate(263.820623, 73.311874)"><g><path d="M 25.796875 -1.609375 L 25.796875 0 L 15.421875 0 L 15.421875 -1.609375 L 18.734375 -2.234375 C 18.765625 -3.335938 18.785156 -4.546875 18.796875 -5.859375 C 18.804688 -7.171875 18.8125 -8.347656 18.8125 -9.390625 L 18.8125 -13.328125 C 18.8125 -15.347656 18.53125 -16.757812 17.96875 -17.5625 C 17.40625 -18.375 16.46875 -18.78125 15.15625 -18.78125 C 14.113281 -18.78125 13.109375 -18.554688 12.140625 -18.109375 C 11.171875 -17.660156 10.117188 -16.941406 8.984375 -15.953125 L 8.984375 -9.390625 C 8.984375 -8.398438 8.988281 -7.242188 9 -5.921875 C 9.019531 -4.597656 9.046875 -3.367188 9.078125 -2.234375 L 12.203125 -1.609375 L 12.203125 0 L 1.828125 0 L 1.828125 -1.609375 L 5.140625 -2.234375 C 5.171875 -3.367188 5.191406 -4.59375 5.203125 -5.90625 C 5.222656 -7.21875 5.234375 -8.378906 5.234375 -9.390625 L 5.234375 -11.671875 C 5.234375 -12.890625 5.21875 -13.898438 5.1875 -14.703125 C 5.15625 -15.515625 5.125 -16.363281 5.09375 -17.25 L 1.5625 -17.65625 L 1.5625 -19.21875 L 7.78125 -21.953125 L 8.453125 -21.5 L 8.8125 -17.875 C 9.90625 -19.101562 11.160156 -20.085938 12.578125 -20.828125 C 13.992188 -21.578125 15.421875 -21.953125 16.859375 -21.953125 C 18.796875 -21.953125 20.234375 -21.3125 21.171875 -20.03125 C 22.109375 -18.75 22.578125 -16.628906 22.578125 -13.671875 L 22.578125 -9.390625 C 22.578125 -8.347656 22.582031 -7.175781 22.59375 -5.875 C 22.613281 -4.582031 22.640625 -3.367188 22.671875 -2.234375 Z M 25.796875 -1.609375 "/></g></g></g><g fill="#fbf9f9" fill-opacity="1"><g transform="translate(290.950976, 73.311874)"><g><path d="M 6.84375 -26.734375 C 5.976562 -26.734375 5.257812 -27 4.6875 -27.53125 C 4.125 -28.070312 3.84375 -28.773438 3.84375 -29.640625 C 3.84375 -30.503906 4.125 -31.195312 4.6875 -31.71875 C 5.257812 -32.238281 5.976562 -32.5 6.84375 -32.5 C 7.707031 -32.5 8.421875 -32.238281 8.984375 -31.71875 C 9.546875 -31.195312 9.828125 -30.503906 9.828125 -29.640625 C 9.828125 -28.773438 9.546875 -28.070312 8.984375 -27.53125 C 8.421875 -27 7.707031 -26.734375 6.84375 -26.734375 Z M 11.9375 -1.609375 L 11.9375 0 L 1.5625 0 L 1.5625 -1.609375 L 4.921875 -2.234375 C 4.953125 -3.367188 4.972656 -4.597656 4.984375 -5.921875 C 4.992188 -7.242188 5 -8.398438 5 -9.390625 L 5 -11.625 C 5 -12.84375 4.984375 -13.863281 4.953125 -14.6875 C 4.929688 -15.507812 4.90625 -16.363281 4.875 -17.25 L 1.34375 -17.65625 L 1.34375 -19.21875 L 8.21875 -21.953125 L 8.890625 -21.5 L 8.765625 -15.421875 L 8.765625 -9.390625 C 8.765625 -8.398438 8.769531 -7.242188 8.78125 -5.921875 C 8.800781 -4.597656 8.820312 -3.367188 8.84375 -2.234375 Z M 11.9375 -1.609375 "/></g></g></g><g fill="#fbf9f9" fill-opacity="1"><g transform="translate(304.270333, 73.311874)"><g><path d="M 14.4375 -1.921875 C 13.875 -1.171875 13.132812 -0.585938 12.21875 -0.171875 C 11.3125 0.242188 10.296875 0.453125 9.171875 0.453125 C 7.585938 0.453125 6.335938 0.0390625 5.421875 -0.78125 C 4.515625 -1.601562 4.0625 -2.894531 4.0625 -4.65625 C 4.0625 -5.21875 4.066406 -5.773438 4.078125 -6.328125 C 4.097656 -6.878906 4.109375 -7.585938 4.109375 -8.453125 L 4.109375 -18.78125 L 0.40625 -18.78125 L 0.40625 -20.75 L 4.375 -21.234375 L 5.5 -27.3125 L 8.21875 -27.3125 L 8 -21.140625 L 13.984375 -21.140625 L 13.984375 -18.78125 L 7.90625 -18.78125 L 7.90625 -5.1875 C 7.90625 -4.019531 8.117188 -3.175781 8.546875 -2.65625 C 8.984375 -2.132812 9.59375 -1.875 10.375 -1.875 C 11.269531 -1.875 12.265625 -2.289062 13.359375 -3.125 Z M 14.4375 -1.921875 "/></g></g></g><g fill="#fbf9f9" fill-opacity="1"><g transform="translate(318.84117, 73.311874)"><g><path d="M 22.265625 -19.3125 L 19.765625 -18.78125 L 13.046875 -0.171875 C 12.335938 1.785156 11.628906 3.476562 10.921875 4.90625 C 10.222656 6.34375 9.507812 7.515625 8.78125 8.421875 C 8.050781 9.335938 7.289062 10.007812 6.5 10.4375 C 5.707031 10.875 4.851562 11.09375 3.9375 11.09375 C 2.800781 11.09375 1.832031 10.816406 1.03125 10.265625 C 0.226562 9.710938 -0.171875 8.988281 -0.171875 8.09375 C -0.0234375 7.46875 0.328125 7 0.890625 6.6875 C 1.460938 6.375 2.085938 6.21875 2.765625 6.21875 C 3.367188 6.21875 3.914062 6.34375 4.40625 6.59375 C 4.894531 6.84375 5.484375 7.296875 6.171875 7.953125 L 6.296875 8.09375 C 7.253906 7.289062 8.0625 6.304688 8.71875 5.140625 C 9.375 3.972656 9.984375 2.660156 10.546875 1.203125 L 2.5 -18.90625 L -0.09375 -19.3125 L -0.09375 -21.140625 L 10.6875 -21.140625 L 10.6875 -19.265625 L 6.796875 -18.8125 L 12.34375 -3.9375 L 17.390625 -18.78125 L 13.546875 -19.3125 L 13.546875 -21.140625 L 22.265625 -21.140625 Z M 22.265625 -19.3125 "/></g></g></g></svg>